<svg xmlns="http://www.w3.org/2000/svg" viewBox="0 0 153.03 42.33"><defs><style>.cls-1{fill:#001655;}.cls-2{fill:#12b529;}</style></defs><title>logo-nav</title><g id="Layer_2" data-name="Layer 2"><g id="Layer_1-2" data-name="Layer 1"><path class="cls-1" d="M45.78,20.34c0-1.08,1-1.63,2.47-1.63,2,0,5.15,1.12,7.65,2.54l2.34-4.91a18.21,18.21,0,0,0-9.48-2.68c-5.72,0-9.48,2.81-9.48,7.25,0,8.4,12.5,6,12.5,10,0,1.25-1.15,1.93-3,1.93a15.16,15.16,0,0,1-8.6-3.59l-2.4,4.84a17.83,17.83,0,0,0,10.94,3.79c5.28,0,9.55-2.47,9.55-7.31C58.28,22,45.78,24.27,45.78,20.34Z"/><rect class="cls-1" x="61.43" y="13.94" width="6.2" height="23.74"/><path class="cls-1" d="M78.46,20.34c0-1.08,1-1.63,2.47-1.63,2,0,5.15,1.12,7.65,2.54l2.34-4.91a18.21,18.21,0,0,0-9.48-2.68c-5.72,0-9.48,2.81-9.48,7.25,0,8.4,12.5,6,12.5,10,0,1.25-1.15,1.93-3,1.93a15.16,15.16,0,0,1-8.6-3.59l-2.4,4.84a17.84,17.84,0,0,0,10.94,3.79c5.28,0,9.55-2.47,9.55-7.31C91,22,78.46,24.27,78.46,20.34Z"/><polygon class="cls-1" points="122.42 13.94 117.95 31.11 113.44 13.94 107.38 13.94 102.91 31.11 98.41 13.94 91.74 13.94 99.53 37.68 105.89 37.68 110.3 21.66 114.56 37.68 120.96 37.68 128.78 13.94 122.42 13.94"/><path class="cls-1" d="M143.07,13.94h-6.37L126.51,37.68h6.37l1.66-4.2H144.8l1.63,4.2H153Zm-6.67,14.8,3.32-8.47L143,28.74Z"/><path class="cls-2" d="M16.71,20.36v8.08A8,8,0,0,1,2.21,33.9a7.07,7.07,0,0,0,11.64-1.77,2.39,2.39,0,0,1-2.29-2.25V20.36c0-5.05-4.65-9.14-10.39-9.14H0V29.88c0,6.87,6.33,12.44,14.14,12.44s14.14-5.57,14.14-12.44V11.22H27.1C21.36,11.22,16.71,15.31,16.71,20.36Z"/><circle class="cls-2" cx="14.14" cy="6.14" r="6.14"/></g></g></svg>