<svg xmlns="http://www.w3.org/2000/svg" viewBox="0 0 279.32 89.61"><defs><style>.cls-1{fill:#f7f7f7;}</style></defs><title>logo-header</title><g id="Layer_2" data-name="Layer 2"><g id="Layer_1-2" data-name="Layer 1"><path class="cls-1" d="M94.68,46.53c0-1.87,1.69-2.8,4.26-2.8,3.38,0,8.86,1.92,13.18,4.37l4-8.45A31.35,31.35,0,0,0,99.81,35C90,35,83.49,39.88,83.49,47.52,83.49,62,105,57.78,105,64.72c0,2.16-2,3.32-5.13,3.32-4.26,0-10.61-2.57-14.81-6.18L80.92,70.2a30.71,30.71,0,0,0,18.83,6.53c9.1,0,16.44-4.26,16.44-12.59C116.2,49.44,94.68,53.29,94.68,46.53Z"/><rect class="cls-1" x="121.62" y="35.51" width="10.67" height="40.87"/><path class="cls-1" d="M150.94,46.53c0-1.87,1.69-2.8,4.26-2.8,3.38,0,8.86,1.92,13.18,4.37l4-8.45A31.35,31.35,0,0,0,156.07,35c-9.85,0-16.33,4.84-16.33,12.48,0,14.46,21.51,10.26,21.51,17.2,0,2.16-2,3.32-5.13,3.32-4.26,0-10.61-2.57-14.81-6.18l-4.14,8.34A30.71,30.71,0,0,0,156,76.73c9.1,0,16.44-4.26,16.44-12.59C172.46,49.44,150.94,53.29,150.94,46.53Z"/><polygon class="cls-1" points="226.62 35.51 218.92 65.07 211.17 35.51 200.73 35.51 193.04 65.07 185.28 35.51 173.8 35.51 187.21 76.38 198.17 76.38 205.75 48.8 213.09 76.38 224.11 76.38 237.58 35.51 226.62 35.51"/><path class="cls-1" d="M262.18,35.51h-11L233.67,76.38h11l2.86-7.23h17.67l2.8,7.23h11.37ZM250.7,61l5.71-14.58L262,61Z"/><path class="cls-1" d="M35.38,43.11v17.1A16.91,16.91,0,0,1,4.68,71.77,15,15,0,0,0,29.33,68a5.06,5.06,0,0,1-4.84-4.76V43.11c0-10.69-9.85-19.36-22-19.36H0V63.27C0,77.82,13.4,89.61,29.94,89.61S59.87,77.82,59.87,63.27V23.75H57.38C45.23,23.75,35.38,32.42,35.38,43.11Z"/><circle class="cls-1" cx="29.94" cy="13" r="13"/></g></g></svg>