<svg xmlns="http://www.w3.org/2000/svg" viewBox="0 0 134.45 43.13"><defs><style>.cls-1{fill:#bcbcbc;}</style></defs><title>logo-footer</title><g id="Layer_2" data-name="Layer 2"><g id="Layer_1-2" data-name="Layer 1"><path class="cls-1" d="M45.58,22.4c0-.9.81-1.35,2-1.35A15.3,15.3,0,0,1,54,23.15l1.94-4.07A15.09,15.09,0,0,0,48,16.87c-4.74,0-7.86,2.33-7.86,6,0,7,10.36,4.94,10.36,8.28,0,1-1,1.6-2.47,1.6a12.56,12.56,0,0,1-7.13-3l-2,4A14.78,14.78,0,0,0,48,36.93c4.38,0,7.91-2,7.91-6.06C55.93,23.8,45.58,25.65,45.58,22.4Z"/><rect class="cls-1" x="58.54" y="17.09" width="5.14" height="19.67"/><path class="cls-1" d="M72.66,22.4c0-.9.81-1.35,2-1.35A15.3,15.3,0,0,1,81,23.15L83,19.08a15.09,15.09,0,0,0-7.86-2.22c-4.74,0-7.86,2.33-7.86,6,0,7,10.36,4.94,10.36,8.28,0,1-1,1.6-2.47,1.6a12.56,12.56,0,0,1-7.13-3l-2,4a14.78,14.78,0,0,0,9.07,3.14c4.38,0,7.91-2,7.91-6.06C83,23.8,72.66,25.65,72.66,22.4Z"/><polygon class="cls-1" points="109.08 17.09 105.38 31.32 101.65 17.09 96.62 17.09 92.92 31.32 89.19 17.09 83.66 17.09 90.11 36.77 95.39 36.77 99.04 23.49 102.57 36.77 107.88 36.77 114.36 17.09 109.08 17.09"/><path class="cls-1" d="M126.2,17.09h-5.28l-8.45,19.67h5.28l1.38-3.48h8.5L129,36.77h5.47Zm-5.53,12.26,2.75-7,2.69,7Z"/><path class="cls-1" d="M17,20.75V29A8.14,8.14,0,0,1,2.25,34.55a7.21,7.21,0,0,0,11.87-1.8,2.44,2.44,0,0,1-2.33-2.29v-9.7c0-5.15-4.74-9.32-10.59-9.32H0v19c0,7,6.45,12.68,14.41,12.68s14.41-5.68,14.41-12.68v-19h-1.2C21.77,11.43,17,15.6,17,20.75Z"/><circle class="cls-1" cx="14.41" cy="6.26" r="6.26"/></g></g></svg>